<svg width="35" height="37" viewBox="0 0 35 37" fill="none" xmlns="http://www.w3.org/2000/svg">
<path d="M34.72 9.4C34.72 11.6667 33.92 13.6267 32.32 15.28C30.72 16.9067 28.3867 18.08 25.32 18.8C26.9733 19.2533 28.2267 20 29.08 21.04C29.9333 22.0533 30.36 23.2267 30.36 24.56C30.36 26.6667 29.6933 28.4933 28.36 30.04C27.0533 31.5867 25.1333 32.7867 22.6 33.64C20.0667 34.4667 17.0133 34.88 13.44 34.88C12.1067 34.88 11.04 34.84 10.24 34.76C10.2133 35.5067 9.89333 36.0667 9.28 36.44C8.66667 36.8133 7.88 37 6.92 37C5.96 37 5.29333 36.7867 4.92 36.36C4.57333 35.9333 4.42667 35.3067 4.48 34.48C4.72 30.7467 5.18667 26.84 5.88 22.76C6.57333 18.6533 7.45333 14.6933 8.52 10.88C8.70667 10.2133 9.08 9.74667 9.64 9.48C10.2 9.21333 10.9333 9.08 11.84 9.08C13.4667 9.08 14.28 9.53333 14.28 10.44C14.28 10.8133 14.2 11.24 14.04 11.72C13.3467 13.8 12.6533 16.6267 11.96 20.2C11.2667 23.7467 10.7733 27.1333 10.48 30.36C11.76 30.4667 12.8 30.52 13.6 30.52C17.3333 30.52 20.0667 29.9867 21.8 28.92C23.56 27.8267 24.44 26.44 24.44 24.76C24.44 23.5867 23.9333 22.6 22.92 21.8C21.9333 21 20.2667 20.56 17.92 20.48C17.3867 20.4533 17.0133 20.32 16.8 20.08C16.5867 19.84 16.48 19.4533 16.48 18.92C16.48 18.1467 16.64 17.52 16.96 17.04C17.28 16.56 17.8667 16.3067 18.72 16.28C20.6133 16.2267 22.32 15.9467 23.84 15.44C25.3867 14.9333 26.6 14.2267 27.48 13.32C28.36 12.3867 28.8 11.3067 28.8 10.08C28.8 8.53333 28.04 7.32 26.52 6.44C25 5.53333 22.6667 5.08 19.52 5.08C16.6667 5.08 13.9067 5.45333 11.24 6.2C8.57333 6.92 6.30667 7.84 4.44 8.96C3.58667 9.46667 2.86667 9.72 2.28 9.72C1.8 9.72 1.42667 9.56 1.16 9.24C0.92 8.89333 0.8 8.46667 0.8 7.96C0.8 7.29333 0.933333 6.72 1.2 6.24C1.49333 5.76 2.17333 5.21333 3.24 4.6C5.48 3.32 8.10667 2.32 11.12 1.6C14.1333 0.879998 17.2133 0.519998 20.36 0.519998C25.1867 0.519998 28.7867 1.33333 31.16 2.96C33.5333 4.58667 34.72 6.73333 34.72 9.4Z" fill="white"/>
</svg>
