<svg width="240" height="59" viewBox="0 0 240 59" fill="none" xmlns="http://www.w3.org/2000/svg">
<g filter="url(#filter0_d_11_6)">
<path d="M20.12 38.2C16.9467 38.2 14.1867 37.6267 11.84 36.48C9.49333 35.3067 7.69333 33.6533 6.44 31.52C5.18667 29.3867 4.56 26.9067 4.56 24.08C4.56 20.16 5.29333 16.68 6.76 13.64C8.25333 10.6 10.2667 8.25333 12.8 6.6C15.3333 4.92 18.1467 4.08 21.24 4.08C24.12 4.08 26.3067 4.82666 27.8 6.32C29.2933 7.78666 30.04 9.73333 30.04 12.16C30.04 13.7867 29.7467 15.0933 29.16 16.08C28.6 17.0667 27.7867 17.56 26.72 17.56C25.9733 17.56 25.3867 17.3867 24.96 17.04C24.5333 16.6933 24.32 16.1867 24.32 15.52C24.32 15.28 24.3733 14.84 24.48 14.2C24.64 13.4 24.72 12.76 24.72 12.28C24.72 9.85333 23.4267 8.64 20.84 8.64C19.08 8.64 17.4 9.21333 15.8 10.36C14.2 11.5067 12.9067 13.2 11.92 15.44C10.9333 17.6533 10.44 20.2933 10.44 23.36C10.44 26.56 11.3333 29.04 13.12 30.8C14.9067 32.5333 17.5467 33.4 21.04 33.4C22.7733 33.4 24.52 33.1867 26.28 32.76C28.0667 32.3067 30.04 31.6267 32.2 30.72C32.6 30.56 32.9333 30.48 33.2 30.48C33.6267 30.48 33.9467 30.64 34.16 30.96C34.3733 31.28 34.48 31.6933 34.48 32.2C34.48 33.8267 33.6 35.0267 31.84 35.8C29.9467 36.6267 27.9733 37.24 25.92 37.64C23.8933 38.0133 21.96 38.2 20.12 38.2ZM51.3513 25.72C51.6979 25.72 51.9646 25.8933 52.1513 26.24C52.3379 26.5867 52.4313 27.0267 52.4313 27.56C52.4313 28.84 52.0446 29.6 51.2713 29.84C49.6713 30.4 47.9113 30.72 45.9913 30.8C45.4846 33.04 44.4846 34.84 42.9913 36.2C41.4979 37.5333 39.8046 38.2 37.9113 38.2C36.3113 38.2 34.9379 37.8133 33.7913 37.04C32.6713 36.2667 31.8179 35.24 31.2313 33.96C30.6446 32.68 30.3512 31.2933 30.3512 29.8C30.3512 27.7733 30.7379 25.9733 31.5113 24.4C32.2846 22.8 33.3513 21.56 34.7113 20.68C36.0713 19.7733 37.5779 19.32 39.2313 19.32C41.2579 19.32 42.8846 20.0267 44.1113 21.44C45.3646 22.8267 46.0979 24.5467 46.3113 26.6C47.5646 26.52 49.0579 26.2533 50.7913 25.8C51.0046 25.7467 51.1913 25.72 51.3513 25.72ZM38.2313 33.96C39.0846 33.96 39.8179 33.6133 40.4313 32.92C41.0713 32.2267 41.4979 31.2267 41.7113 29.92C40.8846 29.36 40.2446 28.6267 39.7913 27.72C39.3646 26.8133 39.1513 25.8533 39.1513 24.84C39.1513 24.4133 39.1913 23.9867 39.2713 23.56H39.0713C38.0046 23.56 37.1113 24.08 36.3913 25.12C35.6979 26.1333 35.3513 27.5733 35.3513 29.44C35.3513 30.9067 35.6313 32.0267 36.1913 32.8C36.7779 33.5733 37.4579 33.96 38.2313 33.96ZM77.4781 26.8C78.2248 26.8 78.5981 27.36 78.5981 28.48C78.5981 30.6133 76.8915 31.68 73.4781 31.68C73.3448 31.68 72.5981 31.64 71.2381 31.56C71.5315 32.9733 71.7581 34.5867 71.9181 36.4C72.1048 38.1867 72.1981 39.9733 72.1981 41.76C72.1981 44.64 71.7048 46.84 70.7181 48.36C69.7581 49.88 68.5181 50.64 66.9981 50.64C65.0781 50.64 63.7048 49.28 62.8781 46.56C62.0781 43.84 61.6781 39.7333 61.6781 34.24C61.6781 32.8267 61.7181 31.4 61.7981 29.96C61.5581 29.9867 61.1715 30 60.6381 30C59.9181 30 59.3315 30.0133 58.8781 30.04C59.1448 32.0133 59.3448 33.9067 59.4781 35.72C59.6381 37.5333 59.7181 39.5467 59.7181 41.76C59.7181 44.64 59.2248 46.84 58.2381 48.36C57.2781 49.88 56.0381 50.64 54.5181 50.64C52.5981 50.64 51.2248 49.28 50.3981 46.56C49.5981 43.84 49.1981 39.7333 49.1981 34.24C49.1981 29.0933 49.7048 23.8933 50.7181 18.64C51.7581 13.36 53.1981 9 55.0381 5.56C56.8781 2.12 58.9581 0.399998 61.2781 0.399998C62.4781 0.399998 63.4115 0.906664 64.0781 1.92C64.7715 2.90666 65.1181 4.33333 65.1181 6.2C65.1181 9.10667 64.3315 12.3467 62.7581 15.92C61.2115 19.4667 58.4648 23.2 54.5181 27.12C54.2781 29.4667 54.1581 31.7467 54.1581 33.96C54.1581 36.7067 54.2515 39.52 54.4381 42.4C54.6248 45.3067 54.9315 46.76 55.3581 46.76C55.7581 46.76 56.0781 46.4267 56.3181 45.76C56.5581 45.0933 56.6781 44.04 56.6781 42.6C56.6781 39.9867 56.5715 37.68 56.3581 35.68C56.1715 33.6533 55.9448 32.0267 55.6781 30.8C55.6248 30.6133 55.5981 30.3333 55.5981 29.96C55.5981 28.8133 56.0515 27.8667 56.9581 27.12C57.8915 26.3733 59.1181 25.9867 60.6381 25.96H61.5981H62.1581C62.6648 21.5333 63.4915 17.3733 64.6381 13.48C65.8115 9.56 67.2248 6.4 68.8781 4C70.5581 1.6 72.3581 0.399998 74.2781 0.399998C75.5315 0.399998 76.5048 0.959998 77.1981 2.08C77.9181 3.2 78.2781 4.70666 78.2781 6.6C78.2781 8.94667 77.8381 11.5733 76.9581 14.48C76.0781 17.3867 74.7715 20.12 73.0381 22.68C71.3315 25.2133 69.2915 27.12 66.9181 28.4C66.7315 30.1867 66.6381 32.04 66.6381 33.96C66.6381 36.7067 66.7315 39.52 66.9181 42.4C67.1048 45.3067 67.4115 46.76 67.8381 46.76C68.2381 46.76 68.5581 46.4267 68.7981 45.76C69.0381 45.0933 69.1581 44.04 69.1581 42.6C69.1581 40.52 69.0515 38.5333 68.8381 36.64C68.6248 34.7467 68.3981 33.2 68.1581 32C68.1048 31.7867 68.0781 31.4933 68.0781 31.12C68.0781 30.0267 68.4515 29.1067 69.1981 28.36C69.9448 27.5867 70.7981 27.2 71.7581 27.2C72.6648 27.2 73.4915 27.1733 74.2381 27.12C75.0115 27.04 75.5048 26.9867 75.7181 26.96C76.6248 26.8533 77.2115 26.8 77.4781 26.8ZM60.4381 4.36C59.9581 4.36 59.3848 5.17333 58.7181 6.8C58.0781 8.42667 57.4381 10.5867 56.7981 13.28C56.1581 15.9733 55.6115 18.84 55.1581 21.88C57.1848 19.48 58.7048 16.88 59.7181 14.08C60.7581 11.2533 61.2781 8.69333 61.2781 6.4C61.2781 5.73333 61.1981 5.22666 61.0381 4.88C60.8781 4.53333 60.6781 4.36 60.4381 4.36ZM73.4381 4.36C72.9048 4.36 72.2515 5.29333 71.4781 7.16C70.7315 9.02667 69.9848 11.4667 69.2381 14.48C68.5181 17.4933 67.9181 20.6133 67.4381 23.84C68.9581 22.64 70.2381 21.04 71.2781 19.04C72.3448 17.04 73.1315 14.9467 73.6381 12.76C74.1715 10.5733 74.4381 8.58666 74.4381 6.8C74.4381 5.17333 74.1048 4.36 73.4381 4.36ZM93.4006 29.08C93.7473 29.08 94.014 29.24 94.2006 29.56C94.414 29.88 94.5206 30.32 94.5206 30.88C94.5206 31.9467 94.2673 32.7733 93.7606 33.36C92.774 34.56 91.374 35.6667 89.5606 36.68C87.774 37.6933 85.854 38.2 83.8006 38.2C81.0006 38.2 78.8273 37.44 77.2806 35.92C75.734 34.4 74.9606 32.32 74.9606 29.68C74.9606 27.84 75.3473 26.1333 76.1206 24.56C76.894 22.96 77.9606 21.6933 79.3206 20.76C80.7073 19.8267 82.2673 19.36 84.0006 19.36C85.5473 19.36 86.7873 19.8267 87.7206 20.76C88.654 21.6667 89.1206 22.9067 89.1206 24.48C89.1206 26.32 88.454 27.9067 87.1206 29.24C85.814 30.5467 83.5873 31.5867 80.4406 32.36C81.1073 33.5867 82.374 34.2 84.2406 34.2C85.4406 34.2 86.8006 33.7867 88.3206 32.96C89.8673 32.1067 91.2006 31 92.3206 29.64C92.6406 29.2667 93.0006 29.08 93.4006 29.08ZM83.3206 23.28C82.334 23.28 81.494 23.8533 80.8006 25C80.134 26.1467 79.8006 27.5333 79.8006 29.16V29.24C81.374 28.8667 82.614 28.3067 83.5206 27.56C84.4273 26.8133 84.8806 25.9467 84.8806 24.96C84.8806 24.4533 84.734 24.0533 84.4406 23.76C84.174 23.44 83.8006 23.28 83.3206 23.28ZM105.584 30.28C105.93 30.28 106.197 30.44 106.384 30.76C106.597 31.08 106.704 31.52 106.704 32.08C106.704 33.04 106.477 33.8667 106.024 34.56C105.277 35.7067 104.29 36.6 103.064 37.24C101.864 37.88 100.424 38.2 98.7438 38.2C96.1838 38.2 94.1971 37.44 92.7838 35.92C91.3704 34.3733 90.6637 32.2933 90.6637 29.68C90.6637 27.84 91.0504 26.1333 91.8238 24.56C92.5971 22.96 93.6638 21.6933 95.0238 20.76C96.4104 19.8267 97.9704 19.36 99.7038 19.36C101.25 19.36 102.49 19.8267 103.424 20.76C104.357 21.6667 104.824 22.9067 104.824 24.48C104.824 26.32 104.157 27.9067 102.824 29.24C101.517 30.5467 99.2771 31.5867 96.1038 32.36C96.7438 33.5867 97.8238 34.2 99.3438 34.2C100.437 34.2 101.33 33.9467 102.024 33.44C102.744 32.9333 103.57 32.08 104.504 30.88C104.824 30.48 105.184 30.28 105.584 30.28ZM99.0238 23.28C98.0371 23.28 97.1971 23.8533 96.5038 25C95.8371 26.1467 95.5038 27.5333 95.5038 29.16V29.24C97.0771 28.8667 98.3171 28.3067 99.2238 27.56C100.13 26.8133 100.584 25.9467 100.584 24.96C100.584 24.4533 100.437 24.0533 100.144 23.76C99.8771 23.44 99.5038 23.28 99.0238 23.28ZM134.495 38.2C131.322 38.2 128.562 37.6267 126.215 36.48C123.868 35.3067 122.068 33.6533 120.815 31.52C119.562 29.3867 118.935 26.9067 118.935 24.08C118.935 20.16 119.668 16.68 121.135 13.64C122.628 10.6 124.642 8.25333 127.175 6.6C129.708 4.92 132.522 4.08 135.615 4.08C138.495 4.08 140.682 4.82666 142.175 6.32C143.668 7.78666 144.415 9.73333 144.415 12.16C144.415 13.7867 144.122 15.0933 143.535 16.08C142.975 17.0667 142.162 17.56 141.095 17.56C140.348 17.56 139.762 17.3867 139.335 17.04C138.908 16.6933 138.695 16.1867 138.695 15.52C138.695 15.28 138.748 14.84 138.855 14.2C139.015 13.4 139.095 12.76 139.095 12.28C139.095 9.85333 137.802 8.64 135.215 8.64C133.455 8.64 131.775 9.21333 130.175 10.36C128.575 11.5067 127.282 13.2 126.295 15.44C125.308 17.6533 124.815 20.2933 124.815 23.36C124.815 26.56 125.708 29.04 127.495 30.8C129.282 32.5333 131.922 33.4 135.415 33.4C137.148 33.4 138.895 33.1867 140.655 32.76C142.442 32.3067 144.415 31.6267 146.575 30.72C146.975 30.56 147.308 30.48 147.575 30.48C148.002 30.48 148.322 30.64 148.535 30.96C148.748 31.28 148.855 31.6933 148.855 32.2C148.855 33.8267 147.975 35.0267 146.215 35.8C144.322 36.6267 142.348 37.24 140.295 37.64C138.268 38.0133 136.335 38.2 134.495 38.2ZM165.726 25.72C166.073 25.72 166.34 25.8933 166.526 26.24C166.713 26.5867 166.806 27.0267 166.806 27.56C166.806 28.84 166.42 29.6 165.646 29.84C164.046 30.4 162.286 30.72 160.366 30.8C159.86 33.04 158.86 34.84 157.366 36.2C155.873 37.5333 154.18 38.2 152.286 38.2C150.686 38.2 149.313 37.8133 148.166 37.04C147.046 36.2667 146.193 35.24 145.606 33.96C145.02 32.68 144.726 31.2933 144.726 29.8C144.726 27.7733 145.113 25.9733 145.886 24.4C146.66 22.8 147.726 21.56 149.086 20.68C150.446 19.7733 151.953 19.32 153.606 19.32C155.633 19.32 157.26 20.0267 158.486 21.44C159.74 22.8267 160.473 24.5467 160.686 26.6C161.94 26.52 163.433 26.2533 165.166 25.8C165.38 25.7467 165.566 25.72 165.726 25.72ZM152.606 33.96C153.46 33.96 154.193 33.6133 154.806 32.92C155.446 32.2267 155.873 31.2267 156.086 29.92C155.26 29.36 154.62 28.6267 154.166 27.72C153.74 26.8133 153.526 25.8533 153.526 24.84C153.526 24.4133 153.566 23.9867 153.646 23.56H153.446C152.38 23.56 151.486 24.08 150.766 25.12C150.073 26.1333 149.726 27.5733 149.726 29.44C149.726 30.9067 150.006 32.0267 150.566 32.8C151.153 33.5733 151.833 33.96 152.606 33.96ZM166.213 38.2C165.2 38.2 164.48 37.6667 164.053 36.6C163.653 35.5333 163.453 33.8267 163.453 31.48C163.453 28.0133 163.946 24.72 164.933 21.6C165.173 20.8267 165.56 20.2667 166.093 19.92C166.653 19.5467 167.426 19.36 168.413 19.36C168.946 19.36 169.32 19.4267 169.533 19.56C169.746 19.6933 169.853 19.9467 169.853 20.32C169.853 20.7467 169.653 21.7067 169.253 23.2C168.986 24.2667 168.773 25.2 168.613 26C168.453 26.8 168.32 27.7867 168.213 28.96C169.093 26.6667 170.08 24.8 171.173 23.36C172.266 21.92 173.333 20.8933 174.373 20.28C175.44 19.6667 176.413 19.36 177.293 19.36C179.026 19.36 179.893 20.2267 179.893 21.96C179.893 22.3067 179.773 23.1467 179.533 24.48C179.32 25.5467 179.213 26.2133 179.213 26.48C179.213 27.4133 179.546 27.88 180.213 27.88C180.96 27.88 181.92 27.2933 183.093 26.12C183.44 25.7733 183.8 25.6 184.173 25.6C184.52 25.6 184.786 25.76 184.973 26.08C185.186 26.3733 185.293 26.7733 185.293 27.28C185.293 28.2667 185.026 29.04 184.493 29.6C183.746 30.3733 182.866 31.04 181.853 31.6C180.866 32.1333 179.813 32.4 178.693 32.4C177.28 32.4 176.2 32.04 175.453 31.32C174.733 30.6 174.373 29.6267 174.373 28.4C174.373 28 174.413 27.6 174.493 27.2C174.546 26.6667 174.573 26.3067 174.573 26.12C174.573 25.6933 174.426 25.48 174.133 25.48C173.733 25.48 173.2 25.9333 172.533 26.84C171.893 27.72 171.253 28.8933 170.613 30.36C169.973 31.8267 169.453 33.3733 169.053 35C168.76 36.2533 168.413 37.1067 168.013 37.56C167.64 37.9867 167.04 38.2 166.213 38.2ZM184.416 38.2C183.403 38.2 182.683 37.6667 182.256 36.6C181.856 35.5333 181.656 33.8267 181.656 31.48C181.656 28.0133 182.15 24.72 183.136 21.6C183.376 20.8267 183.763 20.2667 184.296 19.92C184.856 19.5467 185.63 19.36 186.616 19.36C187.15 19.36 187.523 19.4267 187.736 19.56C187.95 19.6933 188.056 19.9467 188.056 20.32C188.056 20.7467 187.856 21.7067 187.456 23.2C187.19 24.2667 186.976 25.2 186.816 26C186.656 26.8 186.523 27.7867 186.416 28.96C187.296 26.6667 188.283 24.8 189.376 23.36C190.47 21.92 191.536 20.8933 192.576 20.28C193.643 19.6667 194.616 19.36 195.496 19.36C197.23 19.36 198.096 20.2267 198.096 21.96C198.096 23 197.803 24.88 197.216 27.6C196.71 29.92 196.456 31.4533 196.456 32.2C196.456 33.2667 196.843 33.8 197.616 33.8C198.15 33.8 198.776 33.48 199.496 32.84C200.243 32.1733 201.23 31.1067 202.456 29.64C202.776 29.2667 203.136 29.08 203.536 29.08C203.883 29.08 204.15 29.24 204.336 29.56C204.55 29.88 204.656 30.32 204.656 30.88C204.656 31.9467 204.403 32.7733 203.896 33.36C202.75 34.7733 201.51 35.9333 200.176 36.84C198.87 37.7467 197.376 38.2 195.696 38.2C194.336 38.2 193.31 37.8133 192.616 37.04C191.923 36.24 191.576 35.0933 191.576 33.6C191.576 32.8533 191.763 31.52 192.136 29.6C192.483 27.92 192.656 26.76 192.656 26.12C192.656 25.6933 192.51 25.48 192.216 25.48C191.87 25.48 191.376 25.9333 190.736 26.84C190.123 27.72 189.483 28.8933 188.816 30.36C188.176 31.8267 187.656 33.3733 187.256 35C186.963 36.2533 186.616 37.1067 186.216 37.56C185.843 37.9867 185.243 38.2 184.416 38.2ZM219.26 29.08C219.607 29.08 219.873 29.24 220.06 29.56C220.273 29.88 220.38 30.32 220.38 30.88C220.38 31.9467 220.127 32.7733 219.62 33.36C218.633 34.56 217.233 35.6667 215.42 36.68C213.633 37.6933 211.713 38.2 209.66 38.2C206.86 38.2 204.687 37.44 203.14 35.92C201.593 34.4 200.82 32.32 200.82 29.68C200.82 27.84 201.207 26.1333 201.98 24.56C202.753 22.96 203.82 21.6933 205.18 20.76C206.567 19.8267 208.127 19.36 209.86 19.36C211.407 19.36 212.647 19.8267 213.58 20.76C214.513 21.6667 214.98 22.9067 214.98 24.48C214.98 26.32 214.313 27.9067 212.98 29.24C211.673 30.5467 209.447 31.5867 206.3 32.36C206.967 33.5867 208.233 34.2 210.1 34.2C211.3 34.2 212.66 33.7867 214.18 32.96C215.727 32.1067 217.06 31 218.18 29.64C218.5 29.2667 218.86 29.08 219.26 29.08ZM209.18 23.28C208.193 23.28 207.353 23.8533 206.66 25C205.993 26.1467 205.66 27.5333 205.66 29.16V29.24C207.233 28.8667 208.473 28.3067 209.38 27.56C210.287 26.8133 210.74 25.9467 210.74 24.96C210.74 24.4533 210.593 24.0533 210.3 23.76C210.033 23.44 209.66 23.28 209.18 23.28ZM233.283 24.84C233.87 24.84 234.363 25.0533 234.763 25.48C235.19 25.88 235.403 26.3867 235.403 27C235.403 27.3467 235.323 27.72 235.163 28.12C234.736 29.1067 234.136 29.9333 233.363 30.6C232.59 31.2667 231.736 31.6 230.803 31.6C230.056 31.6 229.416 31.3333 228.883 30.8C228.376 30.2667 228.123 29.5467 228.123 28.64C228.123 28.1333 228.15 27.5867 228.203 27C228.256 26.5733 228.283 26.28 228.283 26.12C228.283 25.9067 228.23 25.7467 228.123 25.64C228.043 25.5333 227.936 25.48 227.803 25.48C227.43 25.48 226.923 25.9333 226.283 26.84C225.643 27.72 225.003 28.8933 224.363 30.36C223.723 31.8267 223.203 33.3733 222.803 35C222.51 36.28 222.176 37.1333 221.803 37.56C221.43 37.9867 220.816 38.2 219.963 38.2C218.95 38.2 218.23 37.6667 217.803 36.6C217.403 35.5333 217.203 33.8267 217.203 31.48C217.203 28.0133 217.696 24.72 218.683 21.6C218.923 20.8267 219.31 20.2667 219.843 19.92C220.403 19.5467 221.176 19.36 222.163 19.36C222.696 19.36 223.07 19.4267 223.283 19.56C223.496 19.6933 223.603 19.9467 223.603 20.32C223.603 20.7467 223.403 21.7067 223.003 23.2C222.736 24.2667 222.523 25.2 222.363 26C222.203 26.8 222.07 27.7867 221.963 28.96C222.843 26.6667 223.83 24.8 224.923 23.36C226.016 21.92 227.083 20.8933 228.123 20.28C229.163 19.6667 230.11 19.36 230.963 19.36C231.736 19.36 232.323 19.5867 232.723 20.04C233.15 20.4667 233.363 21.1067 233.363 21.96C233.363 22.4667 233.216 23.4267 232.923 24.84H233.283Z" fill="white"/>
</g>
<defs>
<filter id="filter0_d_11_6" x="0.560059" y="0.400024" width="238.843" height="58.24" filterUnits="userSpaceOnUse" color-interpolation-filters="sRGB">
<feFlood flood-opacity="0" result="BackgroundImageFix"/>
<feColorMatrix in="SourceAlpha" type="matrix" values="0 0 0 0 0 0 0 0 0 0 0 0 0 0 0 0 0 0 127 0" result="hardAlpha"/>
<feOffset dy="4"/>
<feGaussianBlur stdDeviation="2"/>
<feComposite in2="hardAlpha" operator="out"/>
<feColorMatrix type="matrix" values="0 0 0 0 0 0 0 0 0 0 0 0 0 0 0 0 0 0 0.25 0"/>
<feBlend mode="normal" in2="BackgroundImageFix" result="effect1_dropShadow_11_6"/>
<feBlend mode="normal" in="SourceGraphic" in2="effect1_dropShadow_11_6" result="shape"/>
</filter>
</defs>
</svg>
