<svg width="194" height="57" viewBox="0 0 194 57" fill="none" xmlns="http://www.w3.org/2000/svg">
<path d="M16.12 38.2C12.9467 38.2 10.1867 37.6267 7.84 36.48C5.49333 35.3067 3.69333 33.6533 2.44 31.52C1.18667 29.3867 0.56 26.9067 0.56 24.08C0.56 20.16 1.29333 16.68 2.76 13.64C4.25333 10.6 6.26667 8.25333 8.8 6.6C11.3333 4.92 14.1467 4.08 17.24 4.08C20.12 4.08 22.3067 4.82666 23.8 6.32C25.2933 7.78666 26.04 9.73333 26.04 12.16C26.04 13.7867 25.7467 15.0933 25.16 16.08C24.6 17.0667 23.7867 17.56 22.72 17.56C21.9733 17.56 21.3867 17.3867 20.96 17.04C20.5333 16.6933 20.32 16.1867 20.32 15.52C20.32 15.28 20.3733 14.84 20.48 14.2C20.64 13.4 20.72 12.76 20.72 12.28C20.72 9.85333 19.4267 8.64 16.84 8.64C15.08 8.64 13.4 9.21333 11.8 10.36C10.2 11.5067 8.90667 13.2 7.92 15.44C6.93333 17.6533 6.44 20.2933 6.44 23.36C6.44 26.56 7.33333 29.04 9.12 30.8C10.9067 32.5333 13.5467 33.4 17.04 33.4C18.7733 33.4 20.52 33.1867 22.28 32.76C24.0667 32.3067 26.04 31.6267 28.2 30.72C28.6 30.56 28.9333 30.48 29.2 30.48C29.6267 30.48 29.9467 30.64 30.16 30.96C30.3733 31.28 30.48 31.6933 30.48 32.2C30.48 33.8267 29.6 35.0267 27.84 35.8C25.9467 36.6267 23.9733 37.24 21.92 37.64C19.8933 38.0133 17.96 38.2 16.12 38.2ZM47.3513 25.72C47.6979 25.72 47.9646 25.8933 48.1513 26.24C48.3379 26.5867 48.4313 27.0267 48.4313 27.56C48.4313 28.84 48.0446 29.6 47.2713 29.84C45.6713 30.4 43.9113 30.72 41.9913 30.8C41.4846 33.04 40.4846 34.84 38.9913 36.2C37.4979 37.5333 35.8046 38.2 33.9113 38.2C32.3113 38.2 30.9379 37.8133 29.7913 37.04C28.6713 36.2667 27.8179 35.24 27.2313 33.96C26.6446 32.68 26.3512 31.2933 26.3512 29.8C26.3512 27.7733 26.7379 25.9733 27.5113 24.4C28.2846 22.8 29.3513 21.56 30.7113 20.68C32.0713 19.7733 33.5779 19.32 35.2313 19.32C37.2579 19.32 38.8846 20.0267 40.1113 21.44C41.3646 22.8267 42.0979 24.5467 42.3113 26.6C43.5646 26.52 45.0579 26.2533 46.7913 25.8C47.0046 25.7467 47.1913 25.72 47.3513 25.72ZM34.2313 33.96C35.0846 33.96 35.8179 33.6133 36.4313 32.92C37.0713 32.2267 37.4979 31.2267 37.7113 29.92C36.8846 29.36 36.2446 28.6267 35.7913 27.72C35.3646 26.8133 35.1513 25.8533 35.1513 24.84C35.1513 24.4133 35.1913 23.9867 35.2713 23.56H35.0713C34.0046 23.56 33.1113 24.08 32.3913 25.12C31.6979 26.1333 31.3513 27.5733 31.3513 29.44C31.3513 30.9067 31.6313 32.0267 32.1913 32.8C32.7779 33.5733 33.4579 33.96 34.2313 33.96ZM73.4781 26.8C74.2248 26.8 74.5981 27.36 74.5981 28.48C74.5981 30.6133 72.8915 31.68 69.4781 31.68C69.3448 31.68 68.5981 31.64 67.2381 31.56C67.5315 32.9733 67.7581 34.5867 67.9181 36.4C68.1048 38.1867 68.1981 39.9733 68.1981 41.76C68.1981 44.64 67.7048 46.84 66.7181 48.36C65.7581 49.88 64.5181 50.64 62.9981 50.64C61.0781 50.64 59.7048 49.28 58.8781 46.56C58.0781 43.84 57.6781 39.7333 57.6781 34.24C57.6781 32.8267 57.7181 31.4 57.7981 29.96C57.5581 29.9867 57.1715 30 56.6381 30C55.9181 30 55.3315 30.0133 54.8781 30.04C55.1448 32.0133 55.3448 33.9067 55.4781 35.72C55.6381 37.5333 55.7181 39.5467 55.7181 41.76C55.7181 44.64 55.2248 46.84 54.2381 48.36C53.2781 49.88 52.0381 50.64 50.5181 50.64C48.5981 50.64 47.2248 49.28 46.3981 46.56C45.5981 43.84 45.1981 39.7333 45.1981 34.24C45.1981 29.0933 45.7048 23.8933 46.7181 18.64C47.7581 13.36 49.1981 9 51.0381 5.56C52.8781 2.12 54.9581 0.399998 57.2781 0.399998C58.4781 0.399998 59.4115 0.906664 60.0781 1.92C60.7715 2.90666 61.1181 4.33333 61.1181 6.2C61.1181 9.10667 60.3315 12.3467 58.7581 15.92C57.2115 19.4667 54.4648 23.2 50.5181 27.12C50.2781 29.4667 50.1581 31.7467 50.1581 33.96C50.1581 36.7067 50.2515 39.52 50.4381 42.4C50.6248 45.3067 50.9315 46.76 51.3581 46.76C51.7581 46.76 52.0781 46.4267 52.3181 45.76C52.5581 45.0933 52.6781 44.04 52.6781 42.6C52.6781 39.9867 52.5715 37.68 52.3581 35.68C52.1715 33.6533 51.9448 32.0267 51.6781 30.8C51.6248 30.6133 51.5981 30.3333 51.5981 29.96C51.5981 28.8133 52.0515 27.8667 52.9581 27.12C53.8915 26.3733 55.1181 25.9867 56.6381 25.96H57.5981H58.1581C58.6648 21.5333 59.4915 17.3733 60.6381 13.48C61.8115 9.56 63.2248 6.4 64.8781 4C66.5581 1.6 68.3581 0.399998 70.2781 0.399998C71.5315 0.399998 72.5048 0.959998 73.1981 2.08C73.9181 3.2 74.2781 4.70666 74.2781 6.6C74.2781 8.94667 73.8381 11.5733 72.9581 14.48C72.0781 17.3867 70.7715 20.12 69.0381 22.68C67.3315 25.2133 65.2915 27.12 62.9181 28.4C62.7315 30.1867 62.6381 32.04 62.6381 33.96C62.6381 36.7067 62.7315 39.52 62.9181 42.4C63.1048 45.3067 63.4115 46.76 63.8381 46.76C64.2381 46.76 64.5581 46.4267 64.7981 45.76C65.0381 45.0933 65.1581 44.04 65.1581 42.6C65.1581 40.52 65.0515 38.5333 64.8381 36.64C64.6248 34.7467 64.3981 33.2 64.1581 32C64.1048 31.7867 64.0781 31.4933 64.0781 31.12C64.0781 30.0267 64.4515 29.1067 65.1981 28.36C65.9448 27.5867 66.7981 27.2 67.7581 27.2C68.6648 27.2 69.4915 27.1733 70.2381 27.12C71.0115 27.04 71.5048 26.9867 71.7181 26.96C72.6248 26.8533 73.2115 26.8 73.4781 26.8ZM56.4381 4.36C55.9581 4.36 55.3848 5.17333 54.7181 6.8C54.0781 8.42667 53.4381 10.5867 52.7981 13.28C52.1581 15.9733 51.6115 18.84 51.1581 21.88C53.1848 19.48 54.7048 16.88 55.7181 14.08C56.7581 11.2533 57.2781 8.69333 57.2781 6.4C57.2781 5.73333 57.1981 5.22666 57.0381 4.88C56.8781 4.53333 56.6781 4.36 56.4381 4.36ZM69.4381 4.36C68.9048 4.36 68.2515 5.29333 67.4781 7.16C66.7315 9.02667 65.9848 11.4667 65.2381 14.48C64.5181 17.4933 63.9181 20.6133 63.4381 23.84C64.9581 22.64 66.2381 21.04 67.2781 19.04C68.3448 17.04 69.1315 14.9467 69.6381 12.76C70.1715 10.5733 70.4381 8.58666 70.4381 6.8C70.4381 5.17333 70.1048 4.36 69.4381 4.36ZM89.4006 29.08C89.7473 29.08 90.014 29.24 90.2006 29.56C90.414 29.88 90.5206 30.32 90.5206 30.88C90.5206 31.9467 90.2673 32.7733 89.7606 33.36C88.774 34.56 87.374 35.6667 85.5606 36.68C83.774 37.6933 81.854 38.2 79.8006 38.2C77.0006 38.2 74.8273 37.44 73.2806 35.92C71.734 34.4 70.9606 32.32 70.9606 29.68C70.9606 27.84 71.3473 26.1333 72.1206 24.56C72.894 22.96 73.9606 21.6933 75.3206 20.76C76.7073 19.8267 78.2673 19.36 80.0006 19.36C81.5473 19.36 82.7873 19.8267 83.7206 20.76C84.654 21.6667 85.1206 22.9067 85.1206 24.48C85.1206 26.32 84.454 27.9067 83.1206 29.24C81.814 30.5467 79.5873 31.5867 76.4406 32.36C77.1073 33.5867 78.374 34.2 80.2406 34.2C81.4406 34.2 82.8006 33.7867 84.3206 32.96C85.8673 32.1067 87.2006 31 88.3206 29.64C88.6406 29.2667 89.0006 29.08 89.4006 29.08ZM79.3206 23.28C78.334 23.28 77.494 23.8533 76.8006 25C76.134 26.1467 75.8006 27.5333 75.8006 29.16V29.24C77.374 28.8667 78.614 28.3067 79.5206 27.56C80.4273 26.8133 80.8806 25.9467 80.8806 24.96C80.8806 24.4533 80.734 24.0533 80.4406 23.76C80.174 23.44 79.8006 23.28 79.3206 23.28ZM101.584 30.28C101.93 30.28 102.197 30.44 102.384 30.76C102.597 31.08 102.704 31.52 102.704 32.08C102.704 33.04 102.477 33.8667 102.024 34.56C101.277 35.7067 100.29 36.6 99.0638 37.24C97.8638 37.88 96.4238 38.2 94.7438 38.2C92.1838 38.2 90.1971 37.44 88.7838 35.92C87.3704 34.3733 86.6637 32.2933 86.6637 29.68C86.6637 27.84 87.0504 26.1333 87.8238 24.56C88.5971 22.96 89.6638 21.6933 91.0238 20.76C92.4104 19.8267 93.9704 19.36 95.7038 19.36C97.2504 19.36 98.4904 19.8267 99.4238 20.76C100.357 21.6667 100.824 22.9067 100.824 24.48C100.824 26.32 100.157 27.9067 98.8238 29.24C97.5171 30.5467 95.2771 31.5867 92.1038 32.36C92.7438 33.5867 93.8238 34.2 95.3438 34.2C96.4371 34.2 97.3304 33.9467 98.0238 33.44C98.7438 32.9333 99.5704 32.08 100.504 30.88C100.824 30.48 101.184 30.28 101.584 30.28ZM95.0238 23.28C94.0371 23.28 93.1971 23.8533 92.5038 25C91.8371 26.1467 91.5038 27.5333 91.5038 29.16V29.24C93.0771 28.8667 94.3171 28.3067 95.2238 27.56C96.1304 26.8133 96.5838 25.9467 96.5838 24.96C96.5838 24.4533 96.4371 24.0533 96.1438 23.76C95.8771 23.44 95.5038 23.28 95.0238 23.28ZM147.095 12.4C147.095 14.6667 146.295 16.6267 144.695 18.28C143.095 19.9067 140.762 21.08 137.695 21.8C139.348 22.2533 140.602 23 141.455 24.04C142.308 25.0533 142.735 26.2267 142.735 27.56C142.735 29.6667 142.068 31.4933 140.735 33.04C139.428 34.5867 137.508 35.7867 134.975 36.64C132.442 37.4667 129.388 37.88 125.815 37.88C124.482 37.88 123.415 37.84 122.615 37.76C122.588 38.5067 122.268 39.0667 121.655 39.44C121.042 39.8133 120.255 40 119.295 40C118.335 40 117.668 39.7867 117.295 39.36C116.948 38.9333 116.802 38.3067 116.855 37.48C117.095 33.7467 117.562 29.84 118.255 25.76C118.948 21.6533 119.828 17.6933 120.895 13.88C121.082 13.2133 121.455 12.7467 122.015 12.48C122.575 12.2133 123.308 12.08 124.215 12.08C125.842 12.08 126.655 12.5333 126.655 13.44C126.655 13.8133 126.575 14.24 126.415 14.72C125.722 16.8 125.028 19.6267 124.335 23.2C123.642 26.7467 123.148 30.1333 122.855 33.36C124.135 33.4667 125.175 33.52 125.975 33.52C129.708 33.52 132.442 32.9867 134.175 31.92C135.935 30.8267 136.815 29.44 136.815 27.76C136.815 26.5867 136.308 25.6 135.295 24.8C134.308 24 132.642 23.56 130.295 23.48C129.762 23.4533 129.388 23.32 129.175 23.08C128.962 22.84 128.855 22.4533 128.855 21.92C128.855 21.1467 129.015 20.52 129.335 20.04C129.655 19.56 130.242 19.3067 131.095 19.28C132.988 19.2267 134.695 18.9467 136.215 18.44C137.762 17.9333 138.975 17.2267 139.855 16.32C140.735 15.3867 141.175 14.3067 141.175 13.08C141.175 11.5333 140.415 10.32 138.895 9.44C137.375 8.53333 135.042 8.08 131.895 8.08C129.042 8.08 126.282 8.45333 123.615 9.2C120.948 9.92 118.682 10.84 116.815 11.96C115.962 12.4667 115.242 12.72 114.655 12.72C114.175 12.72 113.802 12.56 113.535 12.24C113.295 11.8933 113.175 11.4667 113.175 10.96C113.175 10.2933 113.308 9.72 113.575 9.24C113.868 8.76 114.548 8.21333 115.615 7.6C117.855 6.32 120.482 5.32 123.495 4.6C126.508 3.88 129.588 3.52 132.735 3.52C137.562 3.52 141.162 4.33333 143.535 5.96C145.908 7.58667 147.095 9.73333 147.095 12.4ZM162.541 29.08C162.888 29.08 163.154 29.24 163.341 29.56C163.554 29.88 163.661 30.32 163.661 30.88C163.661 31.9467 163.408 32.7733 162.901 33.36C161.754 34.7733 160.501 35.9333 159.141 36.84C157.808 37.7467 156.288 38.2 154.581 38.2C152.234 38.2 150.488 37.1333 149.341 35C148.221 32.8667 147.661 30.1067 147.661 26.72C147.661 23.4667 148.074 19.76 148.901 15.6C149.754 11.44 150.994 7.86667 152.621 4.88C154.274 1.89333 156.234 0.399998 158.501 0.399998C159.781 0.399998 160.781 0.999998 161.501 2.2C162.248 3.37333 162.621 5.06667 162.621 7.28C162.621 10.4533 161.741 14.1333 159.981 18.32C158.221 22.5067 155.834 26.6533 152.821 30.76C153.008 31.8533 153.314 32.64 153.741 33.12C154.168 33.5733 154.728 33.8 155.421 33.8C156.514 33.8 157.474 33.4933 158.301 32.88C159.128 32.24 160.181 31.16 161.461 29.64C161.781 29.2667 162.141 29.08 162.541 29.08ZM157.621 4.36C157.008 4.36 156.314 5.46667 155.541 7.68C154.768 9.89333 154.088 12.64 153.501 15.92C152.914 19.2 152.594 22.3467 152.541 25.36C154.434 22.24 155.941 19.12 157.061 16C158.181 12.8533 158.741 9.98666 158.741 7.4C158.741 5.37333 158.368 4.36 157.621 4.36ZM180.828 25.72C181.174 25.72 181.441 25.8933 181.628 26.24C181.814 26.5867 181.908 27.0267 181.908 27.56C181.908 28.84 181.521 29.6 180.748 29.84C179.148 30.4 177.388 30.72 175.468 30.8C174.961 33.04 173.961 34.84 172.468 36.2C170.974 37.5333 169.281 38.2 167.388 38.2C165.788 38.2 164.414 37.8133 163.268 37.04C162.148 36.2667 161.294 35.24 160.708 33.96C160.121 32.68 159.828 31.2933 159.828 29.8C159.828 27.7733 160.214 25.9733 160.988 24.4C161.761 22.8 162.828 21.56 164.188 20.68C165.548 19.7733 167.054 19.32 168.708 19.32C170.734 19.32 172.361 20.0267 173.588 21.44C174.841 22.8267 175.574 24.5467 175.788 26.6C177.041 26.52 178.534 26.2533 180.268 25.8C180.481 25.7467 180.668 25.72 180.828 25.72ZM167.708 33.96C168.561 33.96 169.294 33.6133 169.908 32.92C170.548 32.2267 170.974 31.2267 171.188 29.92C170.361 29.36 169.721 28.6267 169.268 27.72C168.841 26.8133 168.628 25.8533 168.628 24.84C168.628 24.4133 168.668 23.9867 168.748 23.56H168.548C167.481 23.56 166.588 24.08 165.868 25.12C165.174 26.1333 164.828 27.5733 164.828 29.44C164.828 30.9067 165.108 32.0267 165.668 32.8C166.254 33.5733 166.934 33.96 167.708 33.96ZM192.035 20.68C192.701 20.68 193.168 20.7867 193.435 21C193.728 21.1867 193.875 21.5733 193.875 22.16C193.875 22.48 193.861 22.7333 193.835 22.92C193.728 23.7467 193.395 25.88 192.835 29.32C192.435 31.64 192.181 33.1733 192.075 33.92C191.061 40.8 189.688 46.2267 187.955 50.2C186.248 54.2 183.955 56.2 181.075 56.2C179.715 56.2 178.608 55.7733 177.755 54.92C176.901 54.0933 176.475 53 176.475 51.64C176.475 49.7467 177.221 47.7067 178.715 45.52C180.208 43.36 183.008 40.6933 187.115 37.52L187.355 35.96C186.901 36.68 186.301 37.24 185.555 37.64C184.835 38.0133 184.115 38.2 183.395 38.2C181.741 38.2 180.421 37.6 179.435 36.4C178.448 35.2 177.955 33.6267 177.955 31.68C177.955 29.5467 178.448 27.5333 179.435 25.64C180.421 23.72 181.728 22.1867 183.355 21.04C185.008 19.8667 186.755 19.28 188.595 19.28C189.181 19.28 189.568 19.4 189.755 19.64C189.968 19.8533 190.141 20.2533 190.275 20.84C190.781 20.7333 191.368 20.68 192.035 20.68ZM184.835 34.16C185.448 34.16 186.035 33.7867 186.595 33.04C187.155 32.2933 187.555 31.2267 187.795 29.84L189.075 23C187.981 23.0267 186.968 23.4533 186.035 24.28C185.101 25.08 184.355 26.1467 183.795 27.48C183.235 28.8133 182.955 30.2267 182.955 31.72C182.955 32.5467 183.115 33.16 183.435 33.56C183.781 33.96 184.248 34.16 184.835 34.16ZM181.515 52.32C182.181 52.32 182.928 51.52 183.755 49.92C184.608 48.32 185.421 45.7733 186.195 42.28C184.141 44.04 182.661 45.6267 181.755 47.04C180.848 48.4533 180.395 49.6933 180.395 50.76C180.395 51.2133 180.475 51.5867 180.635 51.88C180.821 52.1733 181.115 52.32 181.515 52.32Z" fill="white"/>
</svg>
